<svg width="23" height="23" viewBox="0 0 23 23" fill="none" xmlns="http://www.w3.org/2000/svg">
<path d="M19 11.75C19.4142 11.75 19.75 11.4142 19.75 11C19.75 10.5858 19.4142 10.25 19 10.25V11.75ZM3.46967 10.4697C3.17678 10.7626 3.17678 11.2374 3.46967 11.5303L8.24264 16.3033C8.53553 16.5962 9.01041 16.5962 9.3033 16.3033C9.5962 16.0104 9.5962 15.5355 9.3033 15.2426L5.06066 11L9.3033 6.75736C9.5962 6.46447 9.5962 5.98959 9.3033 5.6967C9.01041 5.40381 8.53553 5.40381 8.24264 5.6967L3.46967 10.4697ZM19 10.25L4 10.25V11.75L19 11.75V10.25Z" fill="white"/>
</svg>
