<svg width="390" height="844" viewBox="0 0 390 844" fill="none" xmlns="http://www.w3.org/2000/svg">
<path d="M50.5975 32.065C51.7266 30.4905 54.2107 31.2808 54.2227 33.2182L54.2654 40.1405C54.2707 41.0069 54.8333 41.7714 55.659 42.034L62.2557 44.1325C64.102 44.7199 64.118 47.3266 62.2791 47.9367L55.7089 50.1164C54.8865 50.3892 54.3333 51.1605 54.3387 52.027L54.3813 58.9492C54.3933 60.8866 51.9191 61.7075 50.7706 60.1471L46.6673 54.5719C46.1537 53.8741 45.2492 53.5864 44.4268 53.8592L37.8565 56.0389C36.0176 56.6489 34.4724 54.5495 35.6015 52.9751L39.6358 47.3497C40.1407 46.6456 40.1349 45.6965 39.6213 44.9986L35.5179 39.4235C34.3695 37.8631 35.8887 35.7448 37.735 36.3321L44.3316 38.4306C45.1573 38.6933 46.0582 38.3944 46.5632 37.6903L50.5975 32.065Z" fill="white" fill-opacity="0.82"/>
<path d="M204.641 25.8764C204.891 23.9551 207.453 23.4749 208.381 25.1758L209.817 27.8082C210.232 28.5688 211.089 28.9758 211.941 28.8162L214.888 28.2639C216.792 27.9071 218.041 30.1955 216.71 31.6035L214.65 33.7827C214.055 34.4124 213.933 35.3537 214.348 36.1144L215.784 38.7468C216.712 40.4476 214.921 42.3421 213.171 41.5115L210.462 40.2259C209.679 39.8544 208.746 40.0292 208.151 40.6589L206.091 42.8382C204.76 44.2462 202.405 43.1286 202.654 41.2072L203.04 38.2334C203.151 37.3742 202.696 36.5409 201.914 36.1694L199.204 34.8838C197.454 34.0532 197.789 31.468 199.694 31.1112L202.641 30.5589C203.493 30.3993 204.145 29.7095 204.256 28.8502L204.641 25.8764Z" fill="white" fill-opacity="0.42"/>
<path d="M46.6559 173.315C46.7786 172.352 48.0637 172.111 48.5268 172.964L48.7895 173.448C48.9969 173.83 49.4275 174.035 49.8547 173.954L50.3958 173.851C51.3497 173.67 51.9758 174.818 51.3073 175.522L50.9282 175.922C50.6288 176.237 50.5675 176.71 50.7766 177.091L51.0414 177.574C51.5082 178.425 50.6101 179.375 49.7339 178.957L49.2368 178.72C48.8444 178.533 48.3759 178.62 48.0779 178.937L47.7005 179.338C47.0351 180.045 45.8539 179.485 45.9808 178.522L46.0528 177.976C46.1097 177.545 45.8814 177.127 45.4882 176.941L44.9901 176.706C44.112 176.292 44.2801 174.995 45.2348 174.818L45.7763 174.718C46.2039 174.639 46.5313 174.292 46.5863 173.861L46.6559 173.315Z" fill="white" fill-opacity="0.42"/>
<path d="M317.536 342.101C317.785 340.18 320.348 339.699 321.276 341.4L325.182 348.561C325.597 349.321 326.454 349.728 327.306 349.569L335.323 348.066C337.227 347.71 338.476 349.998 337.145 351.406L331.542 357.334C330.947 357.964 330.825 358.905 331.24 359.666L335.146 366.826C336.074 368.527 334.283 370.421 332.533 369.591L325.164 366.094C324.381 365.722 323.448 365.897 322.853 366.527L317.25 372.455C315.919 373.863 313.564 372.745 313.813 370.824L314.861 362.735C314.973 361.875 314.518 361.042 313.736 360.671L306.366 357.174C304.616 356.343 304.951 353.758 306.855 353.401L314.873 351.899C315.724 351.739 316.376 351.049 316.488 350.19L317.536 342.101Z" fill="white" fill-opacity="0.42"/>
<path d="M81.5583 472.793C81.8074 470.872 84.3696 470.392 85.2975 472.093L86.7335 474.725C87.1485 475.486 88.006 475.893 88.8576 475.733L91.805 475.181C93.7093 474.824 94.9577 477.112 93.6268 478.52L91.567 480.7C90.9718 481.329 90.8498 482.271 91.2647 483.031L92.7008 485.664C93.6286 487.364 91.838 489.259 90.0876 488.428L87.3785 487.143C86.5957 486.771 85.6628 486.946 85.0676 487.576L83.0077 489.755C81.6769 491.163 79.3218 490.045 79.5709 488.124L79.9564 485.15C80.0678 484.291 79.6132 483.458 78.8304 483.086L76.1213 481.801C74.371 480.97 74.7061 478.385 76.6104 478.028L79.5578 477.476C80.4094 477.316 81.0614 476.626 81.1728 475.767L81.5583 472.793Z" fill="white" fill-opacity="0.42"/>
<path d="M321.892 656.239C322.141 654.318 324.704 653.838 325.631 655.538L328.326 660.477C328.741 661.238 329.598 661.645 330.45 661.485L335.979 660.449C337.884 660.092 339.132 662.381 337.801 663.789L333.937 667.877C333.342 668.507 333.22 669.448 333.634 670.209L336.329 675.148C337.257 676.848 335.466 678.743 333.716 677.912L328.633 675.5C327.85 675.129 326.917 675.304 326.322 675.933L322.457 680.022C321.127 681.43 318.771 680.312 319.021 678.391L319.744 672.812C319.855 671.952 319.401 671.119 318.618 670.748L313.535 668.336C311.785 667.505 312.12 664.92 314.024 664.563L319.554 663.527C320.406 663.367 321.058 662.678 321.169 661.818L321.892 656.239Z" fill="white" fill-opacity="0.42"/>
<path d="M98.5583 783.793C98.8074 781.872 101.37 781.392 102.297 783.093L103.734 785.725C104.148 786.486 105.006 786.893 105.858 786.733L108.805 786.181C110.709 785.824 111.958 788.112 110.627 789.52L108.567 791.7C107.972 792.329 107.85 793.271 108.265 794.031L109.701 796.664C110.629 798.364 108.838 800.259 107.088 799.428L104.378 798.143C103.596 797.771 102.663 797.946 102.068 798.576L100.008 800.755C98.6769 802.163 96.3218 801.045 96.5709 799.124L96.9564 796.15C97.0678 795.291 96.6132 794.458 95.8304 794.086L93.1213 792.801C91.371 791.97 91.7061 789.385 93.6104 789.028L96.5578 788.476C97.4094 788.316 98.0614 787.626 98.1728 786.767L98.5583 783.793Z" fill="white" fill-opacity="0.42"/>
<path d="M356.598 95.065C357.727 93.4905 360.211 94.2808 360.223 96.2182L360.265 103.14C360.271 104.007 360.833 104.771 361.659 105.034L368.256 107.133C370.102 107.72 370.118 110.327 368.279 110.937L361.709 113.116C360.887 113.389 360.333 114.161 360.339 115.027L360.381 121.949C360.393 123.887 357.919 124.707 356.771 123.147L352.667 117.572C352.154 116.874 351.249 116.586 350.427 116.859L343.857 119.039C342.018 119.649 340.473 117.549 341.602 115.975L345.636 110.35C346.141 109.646 346.135 108.696 345.621 107.999L341.518 102.423C340.37 100.863 341.889 98.7448 343.735 99.3321L350.332 101.431C351.157 101.693 352.058 101.394 352.563 100.69L356.598 95.065Z" fill="white" fill-opacity="0.42"/>
<path d="M43.8238 312.603C43.9159 310.668 46.4306 309.981 47.4936 311.601L49.3798 314.475C49.8551 315.2 50.7429 315.536 51.5788 315.307L54.8951 314.402C56.7641 313.891 58.1943 316.071 56.9823 317.582L54.8317 320.264C54.2896 320.94 54.2445 321.888 54.7199 322.613L56.606 325.487C57.669 327.107 56.0382 329.14 54.2261 328.455L51.0108 327.238C50.2004 326.932 49.2848 327.182 48.7427 327.858L46.5921 330.54C45.38 332.051 42.9419 331.129 43.034 329.193L43.1975 325.759C43.2387 324.894 42.7179 324.1 41.9076 323.794L38.6922 322.577C36.8802 321.892 37.0041 319.288 38.8731 318.777L42.1895 317.872C43.0253 317.643 43.6191 316.903 43.6603 316.037L43.8238 312.603Z" fill="white" fill-opacity="0.82"/>
<path d="M350.997 545.262C350.901 543.327 353.337 542.4 354.552 543.909L358.893 549.301C359.436 549.976 360.353 550.224 361.162 549.916L367.632 547.454C369.443 546.764 371.077 548.795 370.018 550.417L366.231 556.212C365.757 556.937 365.804 557.885 366.347 558.56L370.688 563.952C371.903 565.461 370.477 567.643 368.607 567.137L361.926 565.326C361.09 565.099 360.202 565.437 359.728 566.162L355.942 571.957C354.882 573.579 352.366 572.897 352.27 570.962L351.927 564.048C351.884 563.183 351.289 562.443 350.453 562.217L343.772 560.406C341.902 559.899 341.773 557.295 343.583 556.606L350.053 554.144C350.863 553.836 351.382 553.041 351.339 552.176L350.997 545.262Z" fill="white" fill-opacity="0.82"/>
<path d="M278.65 796.186C279.78 794.611 282.264 795.402 282.276 797.339L282.29 799.595C282.295 800.461 282.858 801.226 283.683 801.488L285.833 802.172C287.679 802.759 287.695 805.366 285.856 805.976L283.715 806.687C282.893 806.959 282.34 807.731 282.345 808.597L282.359 810.853C282.371 812.79 279.897 813.611 278.748 812.051L277.411 810.234C276.897 809.536 275.993 809.248 275.171 809.521L273.03 810.232C271.191 810.842 269.645 808.742 270.774 807.168L272.089 805.335C272.594 804.63 272.588 803.681 272.075 802.983L270.737 801.167C269.589 799.606 271.108 797.488 272.955 798.075L275.104 798.759C275.93 799.022 276.831 798.723 277.336 798.019L278.65 796.186Z" fill="white" fill-opacity="0.82"/>
<path d="M38.191 656.98C38.786 655.136 41.3928 655.131 41.9952 656.972L44.1477 663.551C44.4171 664.375 45.1862 664.931 46.0526 664.929L52.975 664.915C54.9125 664.911 55.723 667.389 54.1579 668.531L48.5658 672.611C47.8659 673.122 47.5744 674.025 47.8438 674.849L49.9963 681.428C50.5988 683.269 48.4929 684.806 46.9232 683.67L41.3146 679.613C40.6126 679.105 39.6634 679.107 38.9635 679.618L33.3714 683.698C31.8063 684.84 29.6942 683.312 30.2892 681.468L32.415 674.88C32.681 674.056 32.3859 673.153 31.6839 672.646L26.0753 668.588C24.5056 667.452 25.3061 664.972 27.2435 664.968L34.1659 664.954C35.0324 664.952 35.7992 664.392 36.0652 663.568L38.191 656.98Z" fill="white" fill-opacity="0.82"/>
<path d="M341.049 186.916C341.61 185.062 344.216 185.008 344.853 186.838L345.719 189.327C346.004 190.146 346.783 190.688 347.649 190.67L350.285 190.615C352.222 190.575 353.079 193.037 351.535 194.208L349.435 195.801C348.745 196.325 348.47 197.234 348.755 198.052L349.622 200.542C350.258 202.372 348.182 203.947 346.591 202.841L344.427 201.336C343.715 200.842 342.766 200.861 342.076 201.385L339.976 202.978C338.432 204.149 336.292 202.661 336.852 200.807L337.615 198.283C337.865 197.454 337.553 196.557 336.842 196.062L334.678 194.557C333.087 193.451 333.841 190.956 335.778 190.916L338.414 190.861C339.28 190.843 340.036 190.269 340.287 189.44L341.049 186.916Z" fill="white" fill-opacity="0.82"/>
</svg>
