<svg width="30" height="30" viewBox="0 0 30 30" fill="none" xmlns="http://www.w3.org/2000/svg">
<path d="M5 9.15685C5 8.33935 5 7.9306 5.15224 7.56306C5.30448 7.19552 5.59351 6.90649 6.17157 6.32843L7.57843 4.92157C8.15649 4.34351 8.44552 4.05448 8.81306 3.90224C9.1806 3.75 9.58935 3.75 10.4069 3.75H19.5931C20.4106 3.75 20.8194 3.75 21.1869 3.90224C21.5545 4.05448 21.8435 4.34351 22.4216 4.92157L23.8284 6.32843C24.4065 6.90649 24.6955 7.19552 24.8478 7.56306C25 7.9306 25 8.33935 25 9.15685V22.25C25 24.1356 25 25.0784 24.4142 25.6642C23.8284 26.25 22.8856 26.25 21 26.25H9C7.11438 26.25 6.17157 26.25 5.58579 25.6642C5 25.0784 5 24.1356 5 22.25V9.15685Z" stroke="#33363F" stroke-width="2.5"/>
<path d="M5 8.75H25" stroke="#33363F" stroke-width="2.5" stroke-linecap="round"/>
<path d="M11.25 13.75C11.25 14.7446 11.6451 15.6984 12.3483 16.4017C13.0516 17.1049 14.0054 17.5 15 17.5C15.9946 17.5 16.9484 17.1049 17.6516 16.4017C18.3549 15.6984 18.75 14.7446 18.75 13.75" stroke="#33363F" stroke-width="2.5" stroke-linecap="round"/>
</svg>
