<svg width="22" height="22" viewBox="0 0 22 22" fill="none" xmlns="http://www.w3.org/2000/svg">
<path d="M 17.6 3.4 L 17.7 3.5 C 17.9 3.7 18 4 18 4.2 C 18 4.5 17.9 4.8 17.8 5 L 17.7 5.1 L 12.1 10.6 L 17.7 16.2 C 17.9 16.4 18 16.7 18 16.9 C 18 17.2 17.9 17.5 17.8 17.7 L 17.7 17.8 C 17.5 18 17.2 18.1 17 18.1 C 16.7 18.1 16.4 18 16.2 17.9 L 16.1 17.8 L 10.5 12.2 L 4.9 17.8 C 4.7 18 4.4 18.1 4.2 18.1 C 3.9 18.1 3.6 18 3.4 17.9 L 3.3 17.8 C 3.1 17.6 3 17.3 3 17.1 C 3 16.8 3 16.5 3.2 16.3 L 3.3 16.2 L 8.9 10.6 L 3.3 5.1 C 3.1 4.9 3 4.6 3 4.4 C 3 4.1 3 3.8 3.2 3.6 L 3.3 3.5 C 3.5 3.3 3.8 3.2 4 3.2 C 4.3 3.2 4.6 3.2 4.8 3.4 L 4.9 3.5 L 10.5 9.1 L 16.1 3.5 C 16.3 3.3 16.5 3.2 16.8 3.2 C 17.1 3.2 17.4 3.2 17.6 3.4 Z" fill="white"/>
</svg>
