<svg width="22" height="22" viewBox="0 0 22 22" fill="none" xmlns="http://www.w3.org/2000/svg">
<path d="M15.7436 5.20765L15.8163 5.27209C15.9597 5.41558 16.0455 5.60674 16.0574 5.80931C16.0693 6.01187 16.0064 6.21174 15.8807 6.37102L15.8163 6.44366L11.7158 10.5442L15.8163 14.6447C15.9597 14.7882 16.0455 14.9793 16.0574 15.1819C16.0693 15.3845 16.0064 15.5843 15.8807 15.7436L15.8163 15.8163C15.6728 15.9597 15.4816 16.0455 15.2791 16.0574C15.0765 16.0693 14.8766 16.0064 14.7173 15.8807L14.6447 15.8163L10.5442 11.7157L6.44368 15.8163C6.30018 15.9597 6.10902 16.0455 5.90646 16.0574C5.7039 16.0693 5.50402 16.0064 5.34474 15.8807L5.2721 15.8163C5.12864 15.6728 5.04284 15.4816 5.03096 15.279C5.01908 15.0765 5.08196 14.8766 5.20767 14.7173L5.2721 14.6447L9.37261 10.5442L5.2721 6.44366C5.12864 6.30016 5.04284 6.10901 5.03096 5.90644C5.01908 5.70388 5.08196 5.504 5.20767 5.34472L5.2721 5.27209C5.4156 5.12863 5.60676 5.04282 5.80932 5.03094C6.01188 5.01907 6.21176 5.08194 6.37104 5.20765L6.44368 5.27209L10.5442 9.3726L14.6447 5.27209C14.7882 5.12863 14.9794 5.04282 15.1819 5.03094C15.3845 5.01907 15.5844 5.08194 15.7436 5.20765Z" fill="white"/>
</svg>
