<svg width="22" height="22" viewBox="0 0 22 22" fill="none" xmlns="http://www.w3.org/2000/svg">
<path d="M 21.3 0.4 L 21.5 0.6 C 21.8 0.8 21.9 1.2 22 1.6 C 22 2 21.9 2.4 21.6 2.7 L 21.5 2.9 L 13.4 11 L 21.5 19.1 C 21.8 19.4 21.9 19.8 22 20.2 C 22 20.6 21.9 21 21.6 21.3 L 21.5 21.4 C 21.2 21.7 20.8 21.9 20.4 21.9 C 20 21.9 19.6 21.8 19.3 21.6 L 19.2 21.4 L 11 13.3 L 2.9 21.4 C 2.6 21.7 2.3 21.9 1.9 21.9 C 1.5 21.9 1.1 21.8 0.8 21.6 L 0.6 21.4 C 0.3 21.1 0.2 20.8 0.1 20.4 C 0.1 20 0.2 19.6 0.5 19.3 L 0.6 19.1 L 8.7 11 L 0.6 2.9 C 0.3 2.6 0.2 2.2 0.1 1.8 C 0.1 1.4 0.2 1 0.5 0.7 L 0.6 0.6 C 0.9 0.3 1.3 0.1 1.7 0.1 C 2.1 0.1 2.5 0.2 2.8 0.4 L 2.9 0.6 L 11 8.7 L 19.2 0.6 C 19.4 0.3 19.8 0.1 20.2 0.1 C 20.6 0.1 21 0.2 21.3 0.4 Z" fill="white"/>
</svg>
