<svg width="23" height="23" viewBox="0 0 23 23" fill="none" xmlns="http://www.w3.org/2000/svg">
<path d="M3.67903 5.61395C6.49653 1.86111 12.3328 0.76957 16.4862 3.35228C20.5879 5.90145 22.0963 10.8052 20.4154 15.4052C18.8293 19.7494 14.65 21.4696 11.638 19.2846C10.51 18.4662 10.0721 17.4398 9.86124 15.7732L9.75965 14.8274L9.71653 14.4459C9.59865 13.5509 9.41849 13.1503 9.0409 12.9394C8.52819 12.6539 8.18607 12.6472 7.51236 12.9078L7.17599 13.0477L7.00444 13.1225C6.03269 13.5442 5.38678 13.6927 4.56932 13.5212L4.37765 13.4761L4.22049 13.4311C1.54769 12.6031 1.1519 8.9777 3.67903 5.61395ZM4.62203 12.0501L4.7399 12.0856L4.86832 12.1143C5.28903 12.1977 5.6484 12.1287 6.24544 11.8824L6.82236 11.6361C7.97428 11.1637 8.72465 11.1186 9.74144 11.684C10.6202 12.1747 10.9633 12.9279 11.1377 14.2332L11.1885 14.6731L11.2412 15.1829L11.2863 15.5873C11.4511 16.8916 11.7511 17.5902 12.4823 18.1212C14.6625 19.7024 17.7857 18.4173 19.066 14.9117C20.5189 10.9327 19.2328 6.75245 15.7272 4.57224C12.2053 2.3834 7.19899 3.32065 4.82807 6.47645C2.83953 9.12432 3.0839 11.5364 4.62203 12.0501ZM15.3793 10.1392C15.334 9.98588 15.3199 9.82505 15.3378 9.66619C15.3556 9.50733 15.4051 9.35364 15.4832 9.21419C15.5614 9.07475 15.6667 8.95235 15.7929 8.85423C15.9191 8.7561 16.0637 8.68423 16.2181 8.64284C16.3725 8.60146 16.5336 8.5914 16.692 8.61325C16.8503 8.63511 17.0027 8.68844 17.1401 8.77011C17.2776 8.85178 17.3973 8.96012 17.4922 9.08876C17.5871 9.21741 17.6553 9.36374 17.6927 9.51915C17.766 9.82291 17.7176 10.1433 17.558 10.4119C17.3984 10.6805 17.1401 10.8761 16.8383 10.957C16.5365 11.0379 16.215 10.9977 15.9425 10.8449C15.6699 10.6921 15.4678 10.4389 15.3793 10.1392ZM15.8527 13.4819C15.7705 13.175 15.8136 12.848 15.9724 12.5728C16.1313 12.2976 16.393 12.0969 16.6999 12.0147C17.0068 11.9324 17.3338 11.9755 17.609 12.1344C17.8841 12.2932 18.0849 12.5549 18.1671 12.8618C18.2078 13.0138 18.2182 13.1723 18.1977 13.3283C18.1771 13.4842 18.1261 13.6346 18.0474 13.7709C17.9687 13.9071 17.864 14.0265 17.7392 14.1223C17.6144 14.2181 17.4719 14.2883 17.3199 14.329C17.168 14.3697 17.0095 14.3801 16.8535 14.3596C16.6975 14.339 16.5471 14.288 16.4109 14.2093C16.2746 14.1306 16.1552 14.0259 16.0595 13.9011C15.9637 13.7763 15.8934 13.6338 15.8527 13.4819ZM13.4837 7.26132C13.4015 6.95442 13.4446 6.62742 13.6034 6.35226C13.7623 6.07711 14.024 5.87633 14.3309 5.79411C14.6378 5.71189 14.9648 5.75495 15.24 5.91383C15.5151 6.0727 15.7159 6.33437 15.7981 6.64128C15.8388 6.79324 15.8492 6.95174 15.8287 7.10771C15.8081 7.26369 15.7571 7.41409 15.6784 7.55034C15.5997 7.68658 15.495 7.80599 15.3702 7.90176C15.2454 7.99753 15.1029 8.06778 14.9509 8.10849C14.644 8.19071 14.317 8.14765 14.0419 7.98877C13.9056 7.91011 13.7862 7.80537 13.6905 7.68056C13.5947 7.55574 13.5244 7.41328 13.4837 7.26132ZM13.4569 15.8844C13.4116 15.7311 13.3975 15.5703 13.4153 15.4114C13.4332 15.2525 13.4826 15.0989 13.5608 14.9594C13.639 14.82 13.7443 14.6976 13.8705 14.5994C13.9967 14.5013 14.1412 14.4294 14.2956 14.3881C14.4501 14.3467 14.6112 14.3366 14.7696 14.3585C14.9279 14.3803 15.0803 14.4337 15.2177 14.5153C15.3552 14.597 15.4748 14.7053 15.5697 14.834C15.6647 14.9626 15.7328 15.109 15.7703 15.2644C15.8436 15.5681 15.7952 15.8885 15.6356 16.1571C15.476 16.4257 15.2177 16.6213 14.9159 16.7022C14.6141 16.7831 14.2926 16.7429 14.02 16.5901C13.7475 16.4373 13.5454 16.1841 13.4569 15.8844ZM10.1056 6.32982C10.0634 6.17737 10.0519 6.01808 10.0716 5.86114C10.0913 5.70419 10.1419 5.5527 10.2204 5.41541C10.299 5.27812 10.4039 5.15775 10.5293 5.06125C10.6546 4.96474 10.7978 4.89401 10.9506 4.85313C11.1034 4.81226 11.2628 4.80205 11.4196 4.8231C11.5763 4.84415 11.7274 4.89603 11.864 4.97577C12.0006 5.0555 12.1201 5.1615 12.2155 5.28765C12.3109 5.41379 12.3804 5.55759 12.42 5.71074C12.499 6.01662 12.454 6.34134 12.2947 6.6142C12.1355 6.88705 11.8749 7.08595 11.5697 7.16759C11.2645 7.24923 10.9394 7.207 10.6652 7.05009C10.391 6.89319 10.1899 6.63431 10.1056 6.32982Z" fill="#33363F"/>
</svg>
