<svg width="23" height="23" viewBox="0 0 23 23" fill="none" xmlns="http://www.w3.org/2000/svg">
<path d="M3.67903 5.61395C6.49653 1.86111 12.3328 0.76957 16.4862 3.35228C20.5879 5.90145 22.0963 10.8052 20.4154 15.4052C18.8293 19.7494 14.65 21.4696 11.638 19.2846C10.51 18.4662 10.0721 17.4398 9.86124 15.7732L9.75965 14.8274L9.71653 14.4459C9.59865 13.5509 9.41849 13.1503 9.0409 12.9394C8.52819 12.6539 8.18607 12.6472 7.51236 12.9078L7.17599 13.0477L7.00444 13.1225C6.03269 13.5442 5.38678 13.6927 4.56932 13.5212L4.37765 13.4761L4.22049 13.4311C1.54769 12.6031 1.1519 8.9777 3.67903 5.61395ZM16.0684 10.1392C16.1091 10.2912 16.1793 10.4336 16.2751 10.5584C16.3709 10.6833 16.4903 10.788 16.6265 10.8666C16.7628 10.9453 16.9132 10.9964 17.0691 11.0169C17.2251 11.0375 17.3836 11.0271 17.5356 10.9864C17.6875 10.9457 17.83 10.8754 17.9548 10.7796C18.0796 10.6839 18.1844 10.5645 18.263 10.4282C18.3417 10.292 18.3927 10.1416 18.4133 9.98559C18.4338 9.82961 18.4234 9.67112 18.3827 9.51915C18.3005 9.21225 18.0997 8.95058 17.8246 8.7917C17.5494 8.63283 17.2224 8.58976 16.9155 8.67199C16.6086 8.75421 16.3469 8.95498 16.1881 9.23014C16.0292 9.50529 15.9861 9.83229 16.0684 10.1392ZM16.5427 13.4819C16.5802 13.6373 16.6484 13.7836 16.7433 13.9123C16.8382 14.0409 16.9579 14.1492 17.0953 14.2309C17.2328 14.3126 17.3851 14.3659 17.5435 14.3878C17.7019 14.4096 17.863 14.3996 18.0174 14.3582C18.1718 14.3168 18.3164 14.2449 18.4426 14.1468C18.5688 14.0487 18.6741 13.9263 18.7522 13.7868C18.8304 13.6474 18.8799 13.4937 18.8977 13.3348C18.9156 13.176 18.9014 13.0151 18.8562 12.8618C18.7677 12.5622 18.5656 12.3089 18.293 12.1561C18.0204 12.0034 17.699 11.9631 17.3972 12.044C17.0954 12.1249 16.8371 12.3205 16.6775 12.5891C16.5178 12.8578 16.4695 13.1781 16.5427 13.4819ZM14.1718 7.26132C14.254 7.56823 14.4548 7.8299 14.73 7.98877C15.0051 8.14765 15.3321 8.19071 15.639 8.10849C15.9459 8.02627 16.2076 7.82549 16.3665 7.55034C16.5254 7.27518 16.5684 6.94818 16.4862 6.64128C16.4455 6.48931 16.3752 6.34686 16.2795 6.22204C16.1837 6.09722 16.0643 5.99249 15.928 5.91383C15.6529 5.75495 15.3259 5.71189 15.019 5.79411C14.7121 5.87633 14.4504 6.07711 14.2915 6.35226C14.1327 6.62742 14.0896 6.95442 14.1718 7.26132ZM14.145 15.8844C14.1857 16.0364 14.2559 16.1788 14.3517 16.3036C14.4475 16.4285 14.5669 16.5332 14.7031 16.6119C14.8394 16.6905 14.9898 16.7416 15.1458 16.7621C15.3017 16.7827 15.4602 16.7723 15.6122 16.7316C15.7642 16.6909 15.9066 16.6206 16.0314 16.5248C16.1562 16.4291 16.261 16.3097 16.3396 16.1734C16.4183 16.0372 16.4694 15.8868 16.4899 15.7308C16.5105 15.5748 16.5001 15.4163 16.4594 15.2644C16.3771 14.9575 16.1764 14.6958 15.9012 14.5369C15.6261 14.378 15.2991 14.335 14.9922 14.4172C14.6852 14.4994 14.4236 14.7002 14.2647 14.9753C14.1058 15.2505 14.0628 15.5775 14.145 15.8844ZM10.7937 6.32982C10.8333 6.48297 10.9028 6.62677 10.9982 6.75291C11.0936 6.87906 11.2131 6.98506 11.3497 7.06479C11.4863 7.14452 11.6374 7.19641 11.7941 7.21746C11.9509 7.23851 12.1103 7.2283 12.2631 7.18743C12.4159 7.14655 12.5591 7.07582 12.6844 6.97931C12.8097 6.88281 12.9147 6.76243 12.9933 6.62514C13.0718 6.48786 13.1224 6.33637 13.1421 6.17942C13.1618 6.02248 13.1503 5.86319 13.1081 5.71074C13.0238 5.40625 12.8227 5.14737 12.5485 4.99047C12.2743 4.83356 11.9492 4.79133 11.644 4.87297C11.3388 4.95461 11.0782 5.1535 10.9189 5.42636C10.7597 5.69921 10.7147 6.02393 10.7937 6.32982Z" fill="#33363F"/>
</svg>
