<svg width="24" height="29" viewBox="0 0 24 29" fill="none" xmlns="http://www.w3.org/2000/svg">
<path d="M6.10197 16.981C5.02797 16.981 4.45397 15.716 5.16197 14.908L10.683 8.598C10.8472 8.41029 11.0497 8.25985 11.2768 8.15679C11.504 8.05372 11.7505 8.0004 12 8.0004C12.2494 8.0004 12.4959 8.05372 12.7231 8.15679C12.9502 8.25985 13.1527 8.41029 13.317 8.598L18.839 14.908C19.546 15.717 18.972 16.981 17.899 16.981H6.10097H6.10197Z" fill="white"/>
<path d="M7.5765 23.7357C6.771 23.7357 6.3405 22.787 6.8715 22.181L11.0123 17.4485C11.1354 17.3077 11.2873 17.1949 11.4577 17.1176C11.628 17.0403 11.8129 17.0003 12 17.0003C12.1871 17.0003 12.372 17.0403 12.5423 17.1176C12.7127 17.1949 12.8646 17.3077 12.9878 17.4485L17.1293 22.181C17.6595 22.7877 17.229 23.7357 16.4243 23.7357H7.57575H7.5765Z" fill="white"/>
</svg>
