<svg width="89" height="174" viewBox="0 0 89 174" fill="none" xmlns="http://www.w3.org/2000/svg">
<rect width="89" height="174" rx="12" fill="#797C88"/>
<rect x="2" y="2" width="85" height="170" rx="10" fill="#33363F"/>
<rect x="26" y="10" width="37" height="9" rx="4.5" fill="#797C88"/>
<rect x="71" y="10" width="9" height="9" rx="4.5" fill="#797C88"/>
<rect x="9" y="10" width="9" height="9" rx="4.5" fill="#797C88"/>
<rect x="10" y="25" width="45" height="8" rx="4" fill="#797C88"/>
<rect x="10" y="35" width="24" height="8" rx="4" fill="#797C88"/>
<rect x="10" y="46" width="30" height="5" rx="2.5" fill="#555761"/>
<rect x="11" y="80" width="30" height="5" rx="2.5" fill="#555761"/>
<rect x="11" y="74" width="15" height="3" rx="1.5" fill="#555761"/>
<rect x="29" y="74" width="15" height="3" rx="1.5" fill="#555761"/>
<rect x="47" y="74" width="15" height="3" rx="1.5" fill="#555761"/>
<rect x="65" y="74" width="15" height="3" rx="1.5" fill="#555761"/>
<rect x="11" y="56" width="15" height="15" rx="7.5" fill="#797C88"/>
<rect x="29" y="56" width="15" height="15" rx="7.5" fill="#797C88"/>
<rect x="47" y="56" width="15" height="15" rx="7.5" fill="#797C88"/>
<rect x="65" y="56" width="15" height="15" rx="7.5" fill="#797C88"/>
<rect x="11" y="88" width="28" height="38" rx="4" fill="#797C88"/>
<rect x="43" y="88" width="28" height="38" rx="4" fill="#797C88"/>
<path d="M75 92C75 89.7909 76.7909 88 79 88H87V126H79C76.7909 126 75 124.209 75 122V92Z" fill="#797C88"/>
<path d="M2 148H87V162C87 167.523 82.5229 172 77 172H12C6.47715 172 2 167.523 2 162V148Z" fill="#797C88"/>
<rect x="8" y="152" width="8" height="8" rx="4" fill="#C5C5CA"/>
<rect x="24" y="154" width="8" height="8" rx="4" fill="#C5C5CA"/>
<rect x="40" y="154" width="8" height="8" rx="4" fill="#C5C5CA"/>
<rect x="56" y="154" width="8" height="8" rx="4" fill="#C5C5CA"/>
<rect x="72" y="154" width="8" height="8" rx="4" fill="#C5C5CA"/>
<rect x="7" y="161" width="10" height="2" rx="1" fill="#B6B6B6" fill-opacity="0.62"/>
<rect x="23" y="163" width="10" height="2" rx="1" fill="#B6B6B6" fill-opacity="0.62"/>
<rect x="39" y="163" width="10" height="2" rx="1" fill="#B6B6B6" fill-opacity="0.62"/>
<rect x="55" y="163" width="10" height="2" rx="1" fill="#B6B6B6" fill-opacity="0.62"/>
<rect x="71" y="163" width="10" height="2" rx="1" fill="#B6B6B6" fill-opacity="0.62"/>
<circle cx="12" cy="166" r="1" fill="white"/>
</svg>
