<svg width="63" height="28" viewBox="0 0 63 28" fill="none" xmlns="http://www.w3.org/2000/svg">
<circle cx="13.6698" cy="13.6698" r="12.9198" fill="#3E6989" stroke="#E8E8E8" stroke-width="1.5"/>
<path d="M9.29785 7.50028L10.0492 7.27428C10.4609 7.15016 10.9036 7.18004 11.2948 7.35835C11.686 7.53665 11.999 7.8512 12.1753 8.2433L12.7561 9.5349C12.9077 9.87216 12.9499 10.2484 12.8768 10.6109C12.8037 10.9734 12.619 11.3039 12.3485 11.556L11.3866 12.4529C11.3584 12.4791 11.3406 12.5145 11.3363 12.5527C11.308 12.8083 11.4812 13.306 11.8804 13.9982C12.1708 14.5011 12.4341 14.8545 12.6576 15.0522C12.8134 15.1906 12.899 15.2203 12.9357 15.21L14.2299 14.814C14.5833 14.7059 14.9617 14.7111 15.312 14.8288C15.6623 14.9466 15.967 15.1711 16.1834 15.4707L17.0082 16.6142C17.259 16.962 17.3751 17.3889 17.335 17.8158C17.2948 18.2427 17.1011 18.6405 16.7899 18.9354L16.2194 19.4762C15.9167 19.7629 15.5448 19.9664 15.1401 20.0667C14.7353 20.167 14.3115 20.1608 13.9099 20.0486C12.1367 19.5535 10.547 18.0571 9.12272 15.5905C7.69655 13.1206 7.19626 10.9933 7.65727 9.20782C7.76105 8.80626 7.96651 8.4382 8.25386 8.13912C8.54121 7.84005 8.90076 7.62003 9.29785 7.50028ZM9.57664 8.42552C9.33846 8.49728 9.12277 8.62916 8.95034 8.80847C8.77791 8.98778 8.65456 9.20846 8.59217 9.44927C8.20456 10.9508 8.64819 12.8367 9.9591 15.1076C11.2681 17.3753 12.6775 18.7016 14.17 19.1189C14.4109 19.186 14.6651 19.1896 14.9077 19.1293C15.1504 19.0691 15.3734 18.947 15.555 18.7751L16.1261 18.2342C16.2676 18.1001 16.3557 17.9193 16.3739 17.7252C16.3921 17.5311 16.3393 17.337 16.2252 17.1789L15.4011 16.036C15.3027 15.8997 15.1642 15.7975 15.0048 15.7439C14.8454 15.6904 14.6733 15.688 14.5125 15.7373L13.2151 16.1345C12.4618 16.3586 11.778 15.7527 11.044 14.4811C10.5495 13.6248 10.319 12.9616 10.3763 12.4458C10.4066 12.178 10.5309 11.9307 10.7279 11.7466L11.6898 10.8497C11.8128 10.7351 11.8968 10.5848 11.9301 10.4201C11.9633 10.2553 11.9442 10.0842 11.8753 9.93088L11.2945 8.63928C11.2143 8.46119 11.0722 8.31832 10.8945 8.23729C10.7168 8.15627 10.5157 8.14261 10.3287 8.19888L9.57664 8.42552Z" fill="white"/>
<circle cx="25.5566" cy="13.6698" r="12.9198" fill="#FF3743" stroke="#E8E8E8" stroke-width="1.5"/>
<path d="M22.5849 6.98351C20.5366 6.98351 18.8702 8.64988 18.8702 10.6981V16.6415C18.8702 18.6898 20.5366 20.3561 22.5849 20.3561H28.5283C30.5765 20.3561 32.2429 18.6898 32.2429 16.6415V10.6981C32.2429 8.64988 30.5765 6.98351 28.5283 6.98351H22.5849ZM22.5849 8.46935H28.5283C29.7571 8.46935 30.757 9.46933 30.757 10.6981V16.6415C30.757 17.8703 29.7571 18.8703 28.5283 18.8703H22.5849C21.3561 18.8703 20.3561 17.8703 20.3561 16.6415V10.6981C20.3561 9.46933 21.3561 8.46935 22.5849 8.46935ZM29.2712 9.21228C29.0741 9.21228 28.8852 9.29055 28.7459 9.42988C28.6065 9.5692 28.5283 9.75817 28.5283 9.9552C28.5283 10.1522 28.6065 10.3412 28.7459 10.4805C28.8852 10.6199 29.0741 10.6981 29.2712 10.6981C29.4682 10.6981 29.6572 10.6199 29.7965 10.4805C29.9358 10.3412 30.0141 10.1522 30.0141 9.9552C30.0141 9.75817 29.9358 9.5692 29.7965 9.42988C29.6572 9.29055 29.4682 9.21228 29.2712 9.21228ZM25.5566 9.9552C23.5083 9.9552 21.8419 11.6216 21.8419 13.6698C21.8419 15.7181 23.5083 17.3844 25.5566 17.3844C27.6048 17.3844 29.2712 15.7181 29.2712 13.6698C29.2712 11.6216 27.6048 9.9552 25.5566 9.9552ZM25.5566 11.4411C26.7854 11.4411 27.7853 12.441 27.7853 13.6698C27.7853 14.8986 26.7854 15.8986 25.5566 15.8986C24.3278 15.8986 23.3278 14.8986 23.3278 13.6698C23.3278 12.441 24.3278 11.4411 25.5566 11.4411Z" fill="white"/>
<circle cx="37.4434" cy="13.6698" r="12.9198" fill="#833CDE" stroke="#E8E8E8" stroke-width="1.5"/>
<path d="M45.1698 13.3016C45.1698 17.3656 41.7122 20.6598 37.4434 20.6598C36.8056 20.6598 36.1879 20.5866 35.5952 20.447C35.4156 20.4047 35.2278 20.421 35.0625 20.5017L33.3716 21.3277C32.935 21.5409 32.4212 21.2307 32.4212 20.7538V19.235C32.4212 19.018 32.3219 18.8157 32.1581 18.6693C30.6538 17.326 29.717 15.4185 29.717 13.3016C29.717 9.23762 33.1746 5.94341 37.4434 5.94341C41.7122 5.94341 45.1698 9.23762 45.1698 13.3016Z" fill="white"/>
<path opacity="0.05" d="M41.363 11.0943C41.2103 11.0943 41.0623 11.1448 40.935 11.2403L38.9044 12.7368C38.857 12.7723 38.8046 12.79 38.7493 12.79C38.6958 12.79 38.6455 12.7733 38.6031 12.7417L37.1866 11.6802C36.8984 11.4668 36.5589 11.3542 36.2034 11.3542C35.6413 11.3542 35.1246 11.6351 34.8211 12.1055L34.3893 12.7769L32.92 15.1539C32.7802 15.3719 32.7695 15.641 32.8947 15.8689C33.0223 16.1011 33.2634 16.2453 33.5237 16.2453C33.6764 16.2453 33.8244 16.1949 33.9517 16.0994L35.9823 14.6029C36.0297 14.5674 36.0821 14.5496 36.1374 14.5496C36.1909 14.5496 36.2412 14.5663 36.2836 14.5979L37.7001 15.6595C37.9886 15.8732 38.3278 15.9854 38.6833 15.9854C39.2453 15.9854 39.7621 15.7046 40.0656 15.2341L40.4974 14.5627L41.9667 12.1857C42.1065 11.9677 42.1172 11.6986 41.992 11.4707C41.8644 11.2385 41.6233 11.0943 41.363 11.0943Z" fill="black"/>
<path opacity="0.07" d="M41.5203 11.0943C41.4019 11.0943 41.2866 11.1351 41.1868 11.2125L39.0735 12.8209C38.9934 12.883 38.8999 12.9154 38.8019 12.9154C38.7059 12.9154 38.615 12.8842 38.5386 12.8254L37.0648 11.685C36.7981 11.481 36.4831 11.3735 36.1534 11.3735C35.6322 11.3735 35.1533 11.6423 34.8717 12.093L34.4229 12.814L32.8964 15.3641C32.7862 15.5414 32.7777 15.758 32.8749 15.9403C32.9736 16.1256 33.1668 16.2453 33.3664 16.2453C33.4847 16.2453 33.6001 16.2045 33.6999 16.1271L35.8132 14.5188C35.8933 14.4566 35.9868 14.4242 36.0847 14.4242C36.1808 14.4242 36.2717 14.4555 36.3481 14.5142L37.8219 15.6547C38.0886 15.8587 38.4035 15.9662 38.7333 15.9662C39.2545 15.9662 39.7334 15.6974 40.015 15.2467L40.4638 14.5256L41.9903 11.9755C42.1004 11.7982 42.109 11.5816 42.0118 11.3994C41.9131 11.2141 41.7202 11.0943 41.5203 11.0943Z" fill="black"/>
<path d="M41.4586 11.1806L39.2562 12.9185C39.0205 13.1079 38.6998 13.1079 38.468 12.9226L36.9326 11.6908C36.2834 11.1761 35.3639 11.3532 34.9273 12.078L34.4598 12.8563L32.8717 15.6072C32.6399 15.9943 33.0843 16.4349 33.4281 16.159L35.6305 14.4212C35.8662 14.2317 36.1869 14.2317 36.4187 14.4171L37.9541 15.6488C38.6032 16.1636 39.5228 15.9865 39.9594 15.2617L40.4269 14.4834L42.0149 11.7324C42.2468 11.3453 41.8024 10.9047 41.4586 11.1806Z" fill="#833CDE"/>
<circle cx="49.3302" cy="13.6698" r="12.9198" fill="#66DE3C" stroke="#E8E8E8" stroke-width="1.5"/>
<path d="M53.0382 14.8228C53.0081 14.8084 51.8815 14.2536 51.6813 14.1816C51.5996 14.1522 51.5121 14.1236 51.419 14.1236C51.2668 14.1236 51.139 14.1994 51.0395 14.3483C50.927 14.5155 50.5863 14.9138 50.481 15.0327C50.4673 15.0484 50.4485 15.0672 50.4373 15.0672C50.4272 15.0672 50.2529 14.9954 50.2001 14.9725C48.9916 14.4475 48.0743 13.1851 47.9485 12.9723C47.9306 12.9417 47.9298 12.9278 47.9296 12.9278C47.9341 12.9116 47.9747 12.8708 47.9957 12.8498C48.057 12.7891 48.1235 12.7091 48.1878 12.6316C48.2183 12.595 48.2488 12.5582 48.2787 12.5236C48.3721 12.4151 48.4136 12.3308 48.4618 12.2331L48.487 12.1824C48.6046 11.9488 48.5042 11.7516 48.4717 11.6879C48.4451 11.6346 47.9694 10.4866 47.9188 10.366C47.7972 10.0749 47.6365 9.93942 47.4132 9.93942C47.3925 9.93942 47.4132 9.93942 47.3263 9.94309C47.2205 9.94755 46.6442 10.0234 46.3895 10.184C46.1193 10.3543 45.6622 10.8973 45.6622 11.8522C45.6622 12.7116 46.2076 13.523 46.4418 13.8316C46.4476 13.8394 46.4583 13.8552 46.4738 13.8779C47.3705 15.1874 48.4884 16.158 49.6216 16.6107C50.7126 17.0465 51.2292 17.0968 51.5229 17.0968H51.523C51.6464 17.0968 51.7452 17.0872 51.8323 17.0786L51.8876 17.0733C52.2645 17.0399 53.0927 16.6107 53.2811 16.0872C53.4295 15.6748 53.4687 15.2243 53.3699 15.0608C53.3023 14.9496 53.1858 14.8936 53.0382 14.8228Z" fill="white"/>
<path d="M49.4674 5.94341C45.2822 5.94341 41.8774 9.32268 41.8774 13.4764C41.8774 14.8198 42.2369 16.1349 42.918 17.2858L41.6144 21.1312C41.5901 21.2029 41.6082 21.2822 41.6612 21.3362C41.6995 21.3753 41.7514 21.3963 41.8044 21.3963C41.8248 21.3963 41.8452 21.3933 41.8652 21.3869L45.8749 20.1127C46.9722 20.699 48.2123 21.0085 49.4674 21.0085C53.6522 21.0085 57.0567 17.6296 57.0567 13.4764C57.0567 9.32268 53.6522 5.94341 49.4674 5.94341ZM49.4674 19.4393C48.2864 19.4393 47.1425 19.0983 46.1593 18.4531C46.1262 18.4314 46.0878 18.4202 46.0492 18.4202C46.0288 18.4202 46.0083 18.4234 45.9884 18.4297L43.9797 19.0682L44.6282 17.1552C44.6491 17.0932 44.6386 17.025 44.6 16.9722C43.8512 15.9491 43.4554 14.7403 43.4554 13.4764C43.4554 10.1879 46.1524 7.51258 49.4673 7.51258C52.7819 7.51258 55.4785 10.1879 55.4785 13.4764C55.4786 16.7644 52.782 19.4393 49.4674 19.4393Z" fill="white"/>
</svg>
