<svg width="29" height="29" viewBox="0 0 29 29" fill="none" xmlns="http://www.w3.org/2000/svg">
<g clip-path="url(#clip0_7_256)">
<path d="M14.5 29.0017C22.5081 29.0017 29 22.5099 29 14.5017C29 6.49361 22.5081 0.0017395 14.5 0.0017395C6.49187 0.0017395 0 6.49361 0 14.5017C0 22.5099 6.49187 29.0017 14.5 29.0017Z" fill="#1977F3"/>
<path d="M20.1442 18.6944L20.7865 14.502H16.7654V11.7819C16.7654 10.6359 17.3262 9.51646 19.1288 9.51646H20.9578V5.94805C20.9578 5.94805 19.298 5.66461 17.7116 5.66461C14.4001 5.66461 12.2346 7.67108 12.2346 11.3068V14.502H8.55197V18.6944H12.2346V28.8267C12.9727 28.9429 13.7292 29.0021 14.5 29.0021C15.2708 29.0021 16.0273 28.9409 16.7654 28.8267V18.6944H20.1442Z" fill="white"/>
</g>
<defs>
<clipPath id="clip0_7_256">
<rect width="29" height="29" fill="white"/>
</clipPath>
</defs>
</svg>
    