<svg width="23" height="23" viewBox="0 0 23 23" fill="none" xmlns="http://www.w3.org/2000/svg">
<path d="M4.26527 13.3287L10.9282 19.5878C11.144 19.7905 11.2518 19.8918 11.377 19.9236C11.4578 19.9441 11.5423 19.9441 11.623 19.9236C11.7482 19.8918 11.8561 19.7905 12.0719 19.5878L16.7709 15.1736L18.7348 13.3287C20.6095 11.5676 20.8371 8.66964 19.2604 6.63746L18.964 6.25535C17.0778 3.82429 13.2918 4.23199 11.9664 7.0089C11.7792 7.40115 11.2209 7.40115 11.0337 7.0089C9.70831 4.23199 5.92228 3.82428 4.03611 6.25535L3.73964 6.63746C2.16295 8.66964 2.3906 11.5676 4.26527 13.3287Z" stroke="#1E1E1E" stroke-width="1.5"/>
</svg>
