<svg width="38" height="38" viewBox="0 0 38 38" fill="none" xmlns="http://www.w3.org/2000/svg">
<path d="M23.5251 19.2502C24.4118 20.1574 24.9137 21.2578 25.2763 22.7778L25.4346 23.4998L25.7181 24.9992C25.859 25.7038 25.9682 26.0949 26.1202 26.4369C26.5952 27.5025 27.4344 28.5966 28.6456 29.7065C28.7636 29.811 28.8595 29.938 28.9279 30.0799C28.9962 30.2219 29.0356 30.3761 29.0438 30.5334C29.052 30.6908 29.0288 30.8482 28.9755 30.9965C28.9223 31.1448 28.8401 31.281 28.7336 31.3972C28.6272 31.5134 28.4987 31.6072 28.3557 31.6733C28.2126 31.7393 28.0578 31.7762 27.9003 31.7819C27.7429 31.7875 27.5859 31.7617 27.4384 31.7061C27.291 31.6504 27.1562 31.566 27.0417 31.4577C25.6041 30.1403 24.5717 28.7929 23.9511 27.4043C23.7151 26.8755 23.5711 26.3752 23.4032 25.536L23.0707 23.7943L23.0486 23.6993C22.7636 22.3535 22.4089 21.5064 21.8262 20.9095C20.6973 19.7537 18.0943 20.0592 17.3976 21.1597C16.5078 22.5672 16.2814 24.9533 16.9876 27.36C17.5338 29.2188 18.2574 31.0492 19.1599 32.8494C19.2364 32.9894 19.2839 33.1433 19.2996 33.302C19.3153 33.4607 19.2989 33.6209 19.2513 33.7731C19.2038 33.9254 19.126 34.0664 19.0228 34.188C18.9195 34.3095 18.7928 34.409 18.6502 34.4805C18.5077 34.552 18.3522 34.594 18.193 34.6041C18.0338 34.6142 17.8743 34.5921 17.7238 34.5392C17.5734 34.4863 17.4352 34.4036 17.3174 34.2961C17.1996 34.1886 17.1046 34.0584 17.0382 33.9134C16.087 32.0254 15.3075 30.0558 14.7091 28.0282C13.8193 25.0008 14.1138 21.9102 15.39 19.8898C16.8989 17.5053 21.3148 16.986 23.5251 19.2502ZM19.779 22.9156C19.9349 22.9103 20.0904 22.9358 20.2365 22.9906C20.3826 23.0455 20.5165 23.1286 20.6304 23.2352C20.7444 23.3418 20.8362 23.4698 20.9007 23.612C20.9651 23.7541 21.0009 23.9075 21.0061 24.0635C21.0874 26.5094 21.8821 28.8781 23.2924 30.8782L23.6027 31.2993L24.0777 31.9168C24.2599 32.1543 24.3457 32.4518 24.318 32.7499C24.2902 33.0479 24.1509 33.3244 23.928 33.5242C23.705 33.7239 23.4149 33.8321 23.1156 33.827C22.8163 33.822 22.53 33.7041 22.3139 33.497L22.1967 33.3656L21.7217 32.7481C19.8171 30.2734 18.7367 27.2637 18.6326 24.1427C18.622 23.8279 18.7367 23.5219 18.9517 23.2917C19.1667 23.0616 19.4643 22.9263 19.779 22.9156ZM13.9064 14.8675C17.2504 12.3927 21.6236 12.5273 24.5654 14.4178C26.0379 15.3647 27.1541 16.4682 27.8951 17.7317C28.0547 18.0034 28.0998 18.3274 28.0205 18.6323C27.9413 18.9373 27.7441 19.1983 27.4724 19.3578C27.2007 19.5174 26.8767 19.5625 26.5718 19.4832C26.2668 19.4039 26.0059 19.2068 25.8463 18.9351C25.3048 18.0104 24.4561 17.1697 23.2813 16.416C21.1248 15.029 17.8188 14.9277 15.3203 16.777C12.7252 18.6976 11.6327 21.9877 11.9589 25.4568C12.141 27.3996 12.7252 29.3629 13.7211 31.3532C13.8589 31.6346 13.8799 31.9591 13.7795 32.2559C13.6791 32.5527 13.4654 32.7978 13.185 32.9378C12.9047 33.0777 12.5804 33.1012 12.2828 33.0031C11.9852 32.905 11.7385 32.6932 11.5963 32.414C10.4737 30.1704 9.80398 27.9221 9.5934 25.6785C9.19756 21.451 10.5592 17.3454 13.9064 14.8675ZM28.4414 21.6774C28.7557 21.6615 29.0634 21.7709 29.297 21.9817C29.5307 22.1925 29.6711 22.4873 29.6875 22.8016C29.7366 23.7579 29.9725 24.5385 30.3873 25.1671C30.7356 25.6943 31.0428 25.9983 31.2787 26.1171L31.3753 26.1551C31.6768 26.2462 31.9298 26.4534 32.0785 26.731C32.2273 27.0086 32.2597 27.334 32.1686 27.6355C32.0774 27.937 31.8703 28.19 31.5926 28.3387C31.315 28.4875 30.9897 28.5199 30.6881 28.4287C29.8221 28.1675 29.0779 27.4977 28.4034 26.4733C27.7463 25.4758 27.3869 24.2852 27.3156 22.9251C27.3075 22.7693 27.3302 22.6135 27.3823 22.4665C27.4344 22.3196 27.5149 22.1843 27.6193 22.0684C27.7237 21.9526 27.8499 21.8584 27.9907 21.7913C28.1315 21.7242 28.2857 21.6855 28.4414 21.6774ZM16.6408 9.6615C16.7048 9.80381 16.7402 9.95735 16.7448 10.1133C16.7495 10.2693 16.7233 10.4247 16.6679 10.5706C16.6125 10.7164 16.5288 10.8499 16.4217 10.9635C16.3147 11.077 16.1863 11.1683 16.0439 11.2322C13.1306 12.5432 10.9867 14.4115 9.57915 16.8498C7.8169 19.9025 7.34031 23.4697 7.73615 26.4765C7.75652 26.6312 7.74623 26.7884 7.70586 26.9391C7.66548 27.0898 7.59582 27.2311 7.50084 27.3549C7.30902 27.6049 7.02574 27.7685 6.71331 27.8097C6.55861 27.83 6.40142 27.8197 6.2507 27.7794C6.09998 27.739 5.95869 27.6693 5.83489 27.5744C5.58488 27.3825 5.4213 27.0993 5.38015 26.7868C4.92415 23.3019 5.46723 19.2217 7.5224 15.6623C9.18964 12.7791 11.7166 10.5767 15.0717 9.06617C15.2139 9.00209 15.3674 8.96667 15.5233 8.96191C15.6792 8.95716 15.8345 8.98316 15.9804 9.03845C16.1263 9.09373 16.2598 9.17721 16.3734 9.28412C16.487 9.39102 16.5768 9.51926 16.6408 9.6615ZM20.3506 8.41542C23.2481 8.474 26.1329 9.80558 28.994 12.3516C31.8804 14.9197 33.6189 18.411 34.2095 22.7699C34.2341 22.926 34.2272 23.0855 34.1894 23.239C34.1516 23.3924 34.0835 23.5368 33.9891 23.6636C33.8947 23.7904 33.776 23.897 33.6399 23.9774C33.5038 24.0577 33.353 24.11 33.1964 24.1313C33.0398 24.1526 32.8805 24.1424 32.7279 24.1013C32.5752 24.0603 32.4324 23.9892 32.3076 23.8921C32.1828 23.7951 32.0786 23.6742 32.0012 23.5364C31.9238 23.3986 31.8746 23.2468 31.8566 23.0897C31.3389 19.2707 29.8601 16.302 27.4154 14.1265C24.9454 11.9288 22.5783 10.8363 20.3031 10.7904C20.1471 10.7873 19.9933 10.7535 19.8504 10.6909C19.7076 10.6284 19.5784 10.5383 19.4703 10.4258C19.3623 10.3133 19.2774 10.1807 19.2206 10.0354C19.1638 9.89014 19.1362 9.73511 19.1393 9.57917C19.1424 9.42322 19.1762 9.26942 19.2388 9.12654C19.3014 8.98366 19.3914 8.8545 19.5039 8.74643C19.6164 8.63837 19.7491 8.55352 19.8943 8.49672C20.0396 8.43992 20.1946 8.4123 20.3506 8.41542ZM9.47148 8.43758C9.57549 8.55405 9.65551 8.68989 9.70695 8.83732C9.7584 8.98476 9.78026 9.14089 9.77129 9.29678C9.76232 9.45267 9.72269 9.60527 9.65467 9.74583C9.58665 9.88638 9.49158 10.0121 9.3749 10.1159C8.94898 10.4927 8.50406 10.944 8.03856 11.4681C7.60156 11.9621 7.1519 12.6017 6.69906 13.3887C6.62166 13.5248 6.51809 13.6443 6.39432 13.7402C6.27055 13.8362 6.12902 13.9067 5.97788 13.9478C5.82675 13.9888 5.66899 13.9995 5.51369 13.9793C5.35838 13.9591 5.20861 13.9084 5.07299 13.8301C4.93736 13.7518 4.81856 13.6475 4.72343 13.5231C4.62831 13.3987 4.55872 13.2567 4.51869 13.1053C4.47867 12.9539 4.46898 12.796 4.49019 12.6409C4.51141 12.4857 4.56311 12.3363 4.64231 12.2012C5.1038 11.3795 5.64642 10.6062 6.26206 9.89267C6.78614 9.3005 7.29756 8.78433 7.79473 8.341C7.91116 8.23723 8.04689 8.15741 8.19418 8.10611C8.34146 8.0548 8.4974 8.03301 8.65311 8.04198C8.80881 8.05095 8.96123 8.0905 9.10164 8.15838C9.24206 8.22626 9.36773 8.32113 9.47148 8.43758ZM19.8977 3.74142C23.37 3.9045 26.2786 4.8545 28.6536 6.688C28.903 6.88054 29.0657 7.16427 29.106 7.4768C29.1462 7.78932 29.0606 8.10502 28.8681 8.35446C28.6756 8.60389 28.3918 8.76663 28.0793 8.80686C27.7668 8.8471 27.4511 8.76154 27.2016 8.569C25.2304 7.04583 22.7921 6.25575 19.7869 6.11483C16.7738 5.97233 14.307 6.5645 12.3231 7.66492C11.7151 8.00217 11.0326 7.83275 10.6891 7.27383C10.6053 7.14162 10.5489 6.99395 10.5232 6.83955C10.4975 6.68515 10.5031 6.52717 10.5396 6.37496C10.576 6.22275 10.6427 6.0794 10.7355 5.9534C10.8284 5.8274 10.9456 5.72131 11.0801 5.64142C13.5106 4.21008 16.4334 3.57992 19.8977 3.74142Z" fill="#5FABE2"/>
</svg>
