<svg width="23" height="23" viewBox="0 0 23 23" fill="none" xmlns="http://www.w3.org/2000/svg">
<path d="M8 8.6915C8 7.69691 6.73666 7.43329 6.40149 8.36389C5.59074 10.615 5 12.6287 5 13.7174C5 17.1872 7.6863 20 11 20C14.3137 20 17 17.1872 17 13.7174C17 12.5477 16.3182 10.3104 15.4141 7.85803C14.2431 4.68133 13.6575 3.09297 12.9348 3.00741C12.7035 2.98004 12.4512 3.02926 12.2449 3.142C11.6 3.49435 11.6 5.22673 11.6 8.6915C11.6 9.7324 10.7941 10.5763 9.8 10.5763C8.80592 10.5763 8 9.7324 8 8.6915Z" fill="#FFA800"/>
</svg>
