<svg width="19" height="19" viewBox="0 0 19 19" fill="none" xmlns="http://www.w3.org/2000/svg">
<path d="M9.35938 7.77263V11.4517H14.3965C14.1753 12.6349 13.5115 13.6367 12.516 14.3103L15.5536 16.7026C17.3234 15.0445 18.3445 12.609 18.3445 9.71589C18.3445 9.04227 18.2849 8.39449 18.1743 7.77273L9.35938 7.77263Z" fill="#33363F"/>
<path d="M4.11403 11.3081L3.42895 11.8404L1.00394 13.7576C2.544 16.858 5.70048 18.9998 9.35917 18.9998C11.8862 18.9998 14.0048 18.1535 15.5534 16.7026L12.5158 14.3103C11.682 14.8803 10.6184 15.2258 9.35917 15.2258C6.92571 15.2258 4.85817 13.559 4.11786 11.3136L4.11403 11.3081Z" fill="#33363F"/>
<path d="M1.00395 5.24223C0.365834 6.52035 0 7.96263 0 9.49987C0 11.0371 0.365834 12.4794 1.00395 13.7575C1.00395 13.7661 4.11817 11.3048 4.11817 11.3048C3.93098 10.7348 3.82034 10.1303 3.82034 9.49977C3.82034 8.86924 3.93098 8.26473 4.11817 7.69474L1.00395 5.24223Z" fill="#33363F"/>
<path d="M9.35937 3.78269C10.7378 3.78269 11.963 4.26631 12.9415 5.19904L15.6217 2.47865C13.9966 0.941414 11.8865 0 9.35937 0C5.70067 0 2.544 2.13316 1.00394 5.24223L4.11806 7.69494C4.85827 5.44948 6.9259 3.78269 9.35937 3.78269Z" fill="#33363F"/>
</svg>
