<svg width="27" height="26" viewBox="0 0 27 26" fill="none" xmlns="http://www.w3.org/2000/svg">
<path d="M2.42578 13.1579C2.01804 13.1579 1.6875 13.4878 1.6875 13.8948C1.6875 14.3017 2.01804 14.6316 2.42578 14.6316V13.1579ZM25.7291 14.4158C26.0173 14.128 26.0173 13.6615 25.7291 13.3737L21.0307 8.6845C20.7423 8.39675 20.2749 8.39675 19.9866 8.6845C19.6983 8.97226 19.6983 9.4388 19.9866 9.72655L24.163 13.8948L19.9866 18.063C19.6983 18.3508 19.6983 18.8173 19.9866 19.105C20.2749 19.3928 20.7423 19.3928 21.0307 19.105L25.7291 14.4158ZM2.42578 14.6316H25.207V13.1579H2.42578V14.6316Z" fill="#1E1E1E" fill-opacity="0.54"/>
</svg>
