<svg width="21" height="21" viewBox="0 0 21 21" fill="none" xmlns="http://www.w3.org/2000/svg">
<rect width="21" height="21" rx="6" fill="url(#paint0_linear_7_100)"/>
<path d="M7.0764 9.73C7.99277 11.5309 9.46913 13.0073 11.27 13.9236L12.67 12.5236C12.8482 12.3455 13.0964 12.2945 13.3191 12.3645C14.0319 12.6 14.7955 12.7273 15.5909 12.7273C15.7597 12.7273 15.9216 12.7943 16.0409 12.9137C16.1603 13.033 16.2273 13.1949 16.2273 13.3636V15.5909C16.2273 15.7597 16.1603 15.9215 16.0409 16.0409C15.9216 16.1602 15.7597 16.2273 15.5909 16.2273C12.7218 16.2273 9.97014 15.0875 7.94134 13.0587C5.91254 11.0299 4.77277 8.27825 4.77277 5.40909C4.77277 5.24032 4.83981 5.07846 4.95915 4.95911C5.07849 4.83977 5.24036 4.77273 5.40913 4.77273H7.6364C7.80518 4.77273 7.96704 4.83977 8.08638 4.95911C8.20572 5.07846 8.27277 5.24032 8.27277 5.40909C8.27277 6.20455 8.40004 6.96818 8.63549 7.68091C8.70549 7.90364 8.65458 8.15182 8.4764 8.33L7.0764 9.73Z" fill="white"/>
<defs>
<linearGradient id="paint0_linear_7_100" x1="10.5" y1="0" x2="10.5" y2="21" gradientUnits="userSpaceOnUse">
<stop stop-color="#FF1568"/>
<stop offset="1" stop-color="#E60053"/>
</linearGradient>
</defs>
</svg>
