<svg width="23" height="23" viewBox="0 0 23 23" fill="none" xmlns="http://www.w3.org/2000/svg">
<path d="M2.875 5.98958C2.875 5.16354 3.20315 4.37134 3.78724 3.78724C4.37134 3.20314 5.16355 2.875 5.98959 2.875H14.6146C15.4406 2.875 16.2328 3.20314 16.8169 3.78724C17.401 4.37134 17.7292 5.16354 17.7292 5.98958V14.6146C17.7292 15.2337 17.548 15.8106 17.2366 16.2965L11.7818 11.1445C11.3815 10.7664 10.8517 10.5557 10.3011 10.5557C9.75052 10.5557 9.22078 10.7664 8.8205 11.1445L3.36759 16.2955C3.04523 15.7942 2.87421 15.2106 2.875 14.6146V5.98958ZM13.1742 8.62117C13.4914 8.62117 13.7956 8.49516 14.0199 8.27087C14.2442 8.04657 14.3702 7.74237 14.3702 7.42517C14.3702 7.10797 14.2442 6.80376 14.0199 6.57947C13.7956 6.35517 13.4914 6.22917 13.1742 6.22917C12.857 6.22917 12.5528 6.35517 12.3285 6.57947C12.1042 6.80376 11.9782 7.10797 11.9782 7.42517C11.9782 7.74237 12.1042 8.04657 12.3285 8.27087C12.5528 8.49516 12.857 8.62117 13.1742 8.62117Z" fill="#33363F"/>
<path d="M10.7947 12.19L16.2016 17.2951C15.7213 17.5801 15.173 17.73 14.6146 17.7292H5.98959C5.43114 17.73 4.88283 17.5801 4.40259 17.2951L9.80759 12.19C9.94101 12.064 10.1176 11.9938 10.3011 11.9938C10.4847 11.9938 10.6612 12.064 10.7947 12.19Z" fill="#33363F"/>
<path d="M8.3845 20.125C7.86125 20.1255 7.34633 19.994 6.88736 19.7428C6.42839 19.4915 6.04019 19.1286 5.75867 18.6875H15.0928C16.046 18.6875 16.96 18.3089 17.634 17.6349C18.308 16.961 18.6866 16.0469 18.6866 15.0938V5.76056C19.1276 6.04208 19.4906 6.43028 19.7418 6.88925C19.9931 7.34823 20.1246 7.86315 20.1241 8.38639V15.0947C20.1241 17.8729 17.872 20.126 15.0928 20.126L8.3845 20.125Z" fill="#33363F"/>
</svg>
