<svg width="23" height="23" viewBox="0 0 23 23" fill="none" xmlns="http://www.w3.org/2000/svg">
<path d="M13.1751 8.62119C13.4923 8.62119 13.7965 8.49518 14.0208 8.27089C14.2451 8.04659 14.3711 7.74239 14.3711 7.42519C14.3711 7.10799 14.2451 6.80378 14.0208 6.57949C13.7965 6.35519 13.4923 6.22919 13.1751 6.22919C12.8579 6.22919 12.5537 6.35519 12.3294 6.57949C12.1051 6.80378 11.9791 7.10799 11.9791 7.42519C11.9791 7.74239 12.1051 8.04659 12.3294 8.27089C12.5537 8.49518 12.8579 8.62119 13.1751 8.62119Z" fill="#33363F"/>
<path d="M5.98958 2.875C5.16354 2.875 4.37134 3.20314 3.78724 3.78724C3.20314 4.37134 2.875 5.16354 2.875 5.98958V14.6146C2.875 15.4406 3.20314 16.2328 3.78724 16.8169C4.37134 17.401 5.16354 17.7292 5.98958 17.7292H14.6146C15.4406 17.7292 16.2328 17.401 16.8169 16.8169C17.401 16.2328 17.7292 15.4406 17.7292 14.6146V5.98958C17.7292 5.16354 17.401 4.37134 16.8169 3.78724C16.2328 3.20314 15.4406 2.875 14.6146 2.875H5.98958ZM4.3125 5.98958C4.3125 5.06383 5.06383 4.3125 5.98958 4.3125H14.6146C15.5403 4.3125 16.2917 5.06383 16.2917 5.98958V14.6146C16.2917 14.836 16.2485 15.0478 16.1709 15.2413L11.775 11.1291C11.3756 10.7555 10.8491 10.5476 10.3021 10.5476C9.75511 10.5476 9.22859 10.7555 8.82913 11.1291L4.43325 15.2404C4.35325 15.0414 4.31226 14.829 4.3125 14.6146V5.98958ZM10.7928 12.1785L15.11 16.2169C14.9538 16.2648 14.7871 16.2917 14.6146 16.2917H5.98958C5.81708 16.2917 5.65033 16.2658 5.49412 16.2169L9.81046 12.1785C9.94363 12.0539 10.1192 11.9845 10.3016 11.9845C10.484 11.9845 10.6596 12.0539 10.7928 12.1785Z" fill="#33363F"/>
<path d="M8.38548 20.125C7.86223 20.1255 7.34731 19.994 6.88834 19.7428C6.42937 19.4915 6.04117 19.1286 5.75964 18.6875H15.0938C16.0469 18.6875 16.961 18.3089 17.635 17.6349C18.3089 16.961 18.6876 16.0469 18.6876 15.0938V5.76056C19.1286 6.04215 19.4914 6.43036 19.7427 6.88932C19.994 7.34828 20.1255 7.86316 20.1251 8.38639V15.0947C20.1251 17.8729 17.873 20.125 15.0938 20.125H8.38548Z" fill="#33363F"/>
</svg>
