<svg width="23" height="23" viewBox="0 0 23 23" fill="none" xmlns="http://www.w3.org/2000/svg">
<path d="M10.5484 2.94548C10.8468 2.02203 12.1532 2.02203 12.4516 2.94547L13.991 7.71067C14.1244 8.12351 14.5088 8.40325 14.9426 8.40325H19.9365C20.9039 8.40325 21.3076 9.63995 20.5265 10.2107L16.4765 13.1701C16.128 13.4247 15.9822 13.8742 16.1149 14.2849L17.6596 19.0661C17.9575 19.9884 16.9006 20.7528 16.118 20.181L12.09 17.2376C11.7386 16.9808 11.2614 16.9808 10.91 17.2376L6.882 20.181C6.09941 20.7528 5.04247 19.9885 5.34044 19.0661L6.88507 14.2849C7.01776 13.8742 6.87197 13.4247 6.52349 13.1701L2.47347 10.2107C1.69244 9.63995 2.09613 8.40325 3.06346 8.40325H8.05739C8.49124 8.40325 8.87559 8.12351 9.00897 7.71067L10.5484 2.94548Z" fill="#33363F"/>
</svg>
