<svg width="30" height="30" viewBox="0 0 30 30" fill="none" xmlns="http://www.w3.org/2000/svg">
<path d="M12.0258 8.67687C13.0746 6.22562 13.599 5 14.5008 5C15.4025 5 15.9269 6.22562 16.9758 8.67687L17.0246 8.79102C17.6171 10.1759 17.9134 10.8683 18.5172 11.2891C19.121 11.71 19.9136 11.7765 21.4988 11.9096L21.7854 11.9337C24.3798 12.1515 25.677 12.2604 25.9546 13.0342C26.2322 13.8079 25.2688 14.6296 23.3421 16.2729L22.699 16.8214C21.7237 17.6533 21.236 18.0693 21.0087 18.6144C20.9663 18.7161 20.9311 18.8203 20.9032 18.9263C20.7538 19.4946 20.8966 20.098 21.1822 21.3049L21.2711 21.6805C21.796 23.8985 22.0585 25.0074 21.6002 25.4857C21.429 25.6645 21.2064 25.7932 20.9592 25.8564C20.2976 26.0257 19.3583 25.3081 17.4797 23.873C16.2462 22.9306 15.6294 22.4595 14.9212 22.3535C14.6427 22.3118 14.3589 22.3118 14.0803 22.3535C13.3722 22.4595 12.7554 22.9306 11.5218 23.873C9.64323 25.3081 8.70393 26.0257 8.04233 25.8564C7.79511 25.7932 7.57256 25.6645 7.40133 25.4857C6.94309 25.0074 7.20554 23.8985 7.73044 21.6805L7.81934 21.3049C8.10495 20.098 8.24776 19.4946 8.09835 18.9263C8.07048 18.8203 8.03523 18.7161 7.99283 18.6144C7.76553 18.0693 7.27786 17.6533 6.30252 16.8214L5.65948 16.2729C3.73275 14.6296 2.76939 13.8079 3.04696 13.0342C3.32453 12.2604 4.62174 12.1515 7.21616 11.9337L7.50274 11.9096C9.08796 11.7765 9.88057 11.71 10.4844 11.2891C11.0882 10.8683 11.3844 10.1759 11.977 8.79102L12.0258 8.67687Z" stroke="#33363F" stroke-width="2.5"/>
</svg>
