<svg width="90" height="174" viewBox="0 0 90 174" fill="none" xmlns="http://www.w3.org/2000/svg">
<mask id="mask0_177_297" style="mask-type:alpha" maskUnits="userSpaceOnUse" x="46" y="0" width="44" height="174">
<rect x="46" width="44" height="174" fill="#D9D9D9"/>
</mask>
<g mask="url(#mask0_177_297)">
<rect x="1" width="89" height="174" rx="12" fill="#797C88"/>
<rect x="3" y="2" width="85" height="170" rx="10" fill="#33363F"/>
<rect x="27" y="10" width="37" height="9" rx="4.5" fill="#797C88"/>
<rect x="72" y="10" width="9" height="9" rx="4.5" fill="#797C88"/>
<rect x="11" y="25" width="45" height="8" rx="4" fill="#797C88"/>
<rect x="48" y="74" width="15" height="3" rx="1.5" fill="#555761"/>
<rect x="66" y="74" width="15" height="3" rx="1.5" fill="#555761"/>
<rect x="48" y="56" width="15" height="15" rx="7.5" fill="#797C88"/>
<rect x="66" y="56" width="15" height="15" rx="7.5" fill="#797C88"/>
<rect x="44" y="88" width="28" height="38" rx="4" fill="#797C88"/>
<path d="M76 92C76 89.7909 77.7909 88 80 88H88V126H80C77.7909 126 76 124.209 76 122V92Z" fill="#797C88"/>
<path d="M3 148H88V162C88 167.523 83.5229 172 78 172H13C7.47715 172 3 167.523 3 162V148Z" fill="#797C88"/>
<rect x="41" y="154" width="8" height="8" rx="4" fill="#C5C5CA"/>
<rect x="57" y="154" width="8" height="8" rx="4" fill="#C5C5CA"/>
<rect x="73" y="154" width="8" height="8" rx="4" fill="#C5C5CA"/>
<rect x="40" y="163" width="10" height="2" rx="1" fill="#B6B6B6" fill-opacity="0.62"/>
<rect x="56" y="163" width="10" height="2" rx="1" fill="#B6B6B6" fill-opacity="0.62"/>
<rect x="72" y="163" width="10" height="2" rx="1" fill="#B6B6B6" fill-opacity="0.62"/>
</g>
<mask id="mask1_177_297" style="mask-type:alpha" maskUnits="userSpaceOnUse" x="0" y="0" width="46" height="174">
<rect width="46" height="174" fill="#D9D9D9"/>
</mask>
<g mask="url(#mask1_177_297)">
<rect x="1" width="89" height="174" rx="12" fill="#D9D9D9"/>
<rect x="3" y="2" width="85" height="170" rx="10" fill="white"/>
<rect x="27" y="10" width="37" height="9" rx="4.5" fill="#D9D9D9"/>
<rect x="10" y="10" width="9" height="9" rx="4.5" fill="#D9D9D9"/>
<rect x="11" y="25" width="45" height="8" rx="4" fill="#D9D9D9"/>
<rect x="11" y="35" width="24" height="8" rx="4" fill="#D9D9D9"/>
<rect x="11" y="46" width="30" height="5" rx="2.5" fill="#D9D9D9" fill-opacity="0.62"/>
<rect x="11" y="80" width="30" height="5" rx="2.5" fill="#D9D9D9" fill-opacity="0.62"/>
<rect x="12" y="74" width="15" height="3" rx="1.5" fill="#D9D9D9" fill-opacity="0.62"/>
<rect x="30" y="74" width="15" height="3" rx="1.5" fill="#D9D9D9" fill-opacity="0.62"/>
<rect x="12" y="56" width="15" height="15" rx="7.5" fill="#D9D9D9"/>
<rect x="30" y="56" width="15" height="15" rx="7.5" fill="#D9D9D9"/>
<rect x="12" y="88" width="28" height="38" rx="4" fill="#D9D9D9"/>
<rect x="44" y="88" width="28" height="38" rx="4" fill="#D9D9D9"/>
<path d="M3 148H88V162C88 167.523 83.5229 172 78 172H13C7.47715 172 3 167.523 3 162V148Z" fill="#D9D9D9"/>
<rect x="9" y="152" width="8" height="8" rx="4" fill="white"/>
<rect x="25" y="154" width="8" height="8" rx="4" fill="white"/>
<rect x="41" y="154" width="8" height="8" rx="4" fill="white"/>
<rect x="8" y="161" width="10" height="2" rx="1" fill="#F4F2F2" fill-opacity="0.62"/>
<rect x="24" y="163" width="10" height="2" rx="1" fill="#F4F2F2" fill-opacity="0.62"/>
<rect x="40" y="163" width="10" height="2" rx="1" fill="#F4F2F2" fill-opacity="0.62"/>
<circle cx="13" cy="166" r="1" fill="white"/>
</g>
</svg>
