<svg width="28" height="22" viewBox="0 0 28 22" fill="none" xmlns="http://www.w3.org/2000/svg">
<path d="M27.3333 2.72985C26.3523 3.16505 25.2977 3.45905 24.1912 3.59132C25.3207 2.91425 26.1883 1.84212 26.5967 0.56452C25.5395 1.19159 24.3687 1.64679 23.1224 1.89212C22.1245 0.828787 20.7027 0.16452 19.1291 0.16452C16.1077 0.16452 13.658 2.61399 13.658 5.63532C13.658 6.06412 13.7064 6.48172 13.7996 6.88212C9.25266 6.65399 5.22146 4.47585 2.52306 1.16585C2.05212 1.97385 1.78226 2.91359 1.78226 3.91625C1.78226 5.81439 2.74812 7.48892 4.21612 8.46999C3.31932 8.44159 2.47572 8.19545 1.73812 7.78572C1.73759 7.80852 1.73759 7.83145 1.73759 7.85452C1.73759 10.5052 3.62346 12.7164 6.12626 13.2191C5.66719 13.3441 5.18386 13.4109 4.68492 13.4109C4.33239 13.4109 3.98972 13.3765 3.65559 13.3128C4.35186 15.4863 6.37226 17.0681 8.76639 17.1121C6.89399 18.5796 4.53506 19.4541 1.97172 19.4541C1.53012 19.4541 1.09466 19.4283 0.666656 19.3776C3.08786 20.93 5.96359 21.8359 9.05319 21.8359C19.1163 21.8359 24.6193 13.4993 24.6193 6.26959C24.6193 6.03239 24.614 5.79652 24.6035 5.56172C25.6724 4.79052 26.5999 3.82692 27.3333 2.72985Z" fill="#3AAAE1"/>
</svg>
