<svg width="22" height="22" viewBox="0 0 22 22" fill="none" xmlns="http://www.w3.org/2000/svg">
<path d="M6.09189 18.505L6.42353 18.7011C7.81645 19.5262 9.41356 19.9627 11.0423 19.9634H11.0457C16.0474 19.9634 20.118 15.9015 20.1201 10.9091C20.121 8.48978 19.1779 6.21475 17.4647 4.5034C16.6243 3.65942 15.6246 2.99017 14.5234 2.5344C13.4222 2.07863 12.2414 1.84539 11.0492 1.84819C6.04366 1.84819 1.97292 5.90965 1.97114 10.9018C1.96868 12.6065 2.44964 14.277 3.35842 15.7204L3.57433 16.0628L2.65744 19.4037L6.09189 18.505ZM0.0360107 21.992L1.58504 16.3472C0.629712 14.6952 0.127121 12.8211 0.127715 10.9011C0.130237 4.89455 5.02764 0.00799561 11.0458 0.00799561C13.9663 0.00947665 16.7074 1.14381 18.769 3.2029C20.8306 5.26199 21.9648 7.99896 21.9638 10.9098C21.9611 16.9159 17.063 21.8033 11.0457 21.8033H11.0409C9.21383 21.8026 7.41848 21.3451 5.82375 20.4772L0.0360107 21.992Z" fill="white"/>
<path d="M10.9371 1.73622C5.93147 1.73622 1.86074 5.79769 1.85896 10.7898C1.85649 12.4945 2.33745 14.1651 3.24624 15.6084L3.46214 15.951L2.54525 19.2919L5.97985 18.3931L6.3115 18.5892C7.70442 19.4142 9.30152 19.8506 10.9302 19.8514H10.9336C15.9354 19.8514 20.0061 15.7895 20.008 10.7971C20.0118 9.60716 19.7791 8.4283 19.3233 7.32877C18.8674 6.22923 18.1976 5.23085 17.3526 4.39144C16.5123 3.54743 15.5126 2.87817 14.4113 2.4224C13.3101 1.96663 12.1292 1.73341 10.9371 1.73622Z" fill="url(#paint0_linear_7_115)"/>
<path fill-rule="evenodd" clip-rule="evenodd" d="M8.20495 6.23504C8.00047 5.78169 7.7853 5.77251 7.59106 5.76466L7.06814 5.75829C6.88622 5.75829 6.59063 5.82642 6.34074 6.09893C6.09086 6.37144 5.38586 7.03006 5.38586 8.36967C5.38586 9.70927 6.36345 11.0037 6.49967 11.1856C6.63589 11.3674 8.38687 14.2041 11.1598 15.2955C13.4641 16.2025 13.933 16.0221 14.4334 15.9767C14.9338 15.9314 16.0474 15.3181 16.2746 14.6823C16.5018 14.0465 16.5019 13.5018 16.4338 13.3879C16.3657 13.274 16.1838 13.2063 15.9107 13.0701C15.6377 12.9338 14.2967 12.2752 14.0467 12.1842C13.7967 12.0933 13.6149 12.0481 13.4328 12.3206C13.2507 12.5932 12.7286 13.2062 12.5693 13.3879C12.4101 13.5696 12.2512 13.5924 11.9782 13.4563C11.7051 13.3202 10.8267 13.0326 9.78439 12.105C8.97345 11.3833 8.42604 10.492 8.26667 10.2196C8.10731 9.94727 8.24976 9.79976 8.38657 9.6641C8.50899 9.54206 8.65931 9.34612 8.79597 9.1872C8.93264 9.02829 8.9776 8.91469 9.06842 8.73326C9.15923 8.55184 9.11397 8.39248 9.04571 8.25637C8.97745 8.12026 8.44741 6.77355 8.20495 6.23504Z" fill="white"/>
<defs>
<linearGradient id="paint0_linear_7_115" x1="10.7487" y1="2.82331" x2="10.8404" y2="18.3039" gradientUnits="userSpaceOnUse">
<stop stop-color="#57D163"/>
<stop offset="1" stop-color="#23B33A"/>
</linearGradient>
</defs>
</svg>
